<?xml version="1.0" encoding="utf-8"?>
<!-- Generator: Adobe Illustrator 23.0.5, SVG Export Plug-In . SVG Version: 6.00 Build 0)  -->
<svg version="1.1" id="Layer_1" xmlns="http://www.w3.org/2000/svg" xmlns:xlink="http://www.w3.org/1999/xlink" x="0px" y="0px"
	 viewBox="0 0 280 300" enable-background="new 0 0 280 300" xml:space="preserve">
<g id="logo" transform="translate(0.000000,287.000000) scale(0.100000,-0.100000)">
	<path fill="#FE0095" stroke="#FE0095" stroke-width="2" stroke-miterlimit="10" d="M2799.3,2220.1h-34.3l-17-71.1
		c-10-39.1-21-71.1-26-71.1c-4,0-11,16-14,35.6c-4,19.6-10,35.6-14,35.6c-5,0-21-46.2-36-103.1c-32-114.7-30-116.4-59,34.7
		c-9,47.1-20,84.4-24,81.8c-5-1.8-14-40.9-21-86.2l-13-82.7l-13,93.3c-7,51.6-13,102.2-13,113.8c-1,10.7-5,19.6-9,19.6
		c-5,0-17-66.7-28-148.4l-19-149.3l-6,102.2c-4,56-10,179.6-14,273.8c-4,95.1-11,168.9-15,164.4c-5-3.6-23-74.7-40-158.2
		c-17-82.7-34-157.3-37-164.4c-3-8-13,11.6-23,44.4c-10,33.8-20,52.4-23,44.4c-4-7.1-15-72.9-25-145.8l-18-132.4l-29,166.2
		c-16,90.7-32,165.3-36,165.3c-3,0-15-48-25-107.6c-10-58.7-19-104-21-99.6c-2,6.2-24,209.8-39,354.7c-6,60.4-17,92.4-28,82.7
		c-5-4.4-27-213.3-49-465.8l-12-133.3l-33,195.6c-20.7,117.3-40.7,216.6-39,211.6c-11,37.3-21,7.1-27-88.9
		c-12-165.3-33-344.9-35-284.4c-1,31.1-5,50.7-12,50.7c-8,0-9-14.2-5-46.2c4-25.8,9-72.9,11-104.9c4-51.6,3-48.9-10,22.2
		c-7,44.4-35,232.9-61,420.4c-27,186.7-51,339.6-55,339.6c-7,0-17-82.7-51-435.6c-18-179.6-25-224.9-29-191.1c-4,24.9-5-1.8-3-57.8
		c2-69.3,1-93.3-5-75.6c-5,15.1-14,127.1-21,248.9c-6,122.7-40,742.2-40,758.2c0,19.6-5,28.4-15,28.4c-8,0-15-8-15-16.9
		c0-16.9-30-327.1-65-676.4c-9-85.3-19-195.6-22-244.4c-1-16.8-3.2-71.3-9.3-71.5c-1,0-2.1,1.5-5.7,12.9
		c-8.1,25.5-11.9,47.2-15.1,67.8c-0.9,5.7-1.5,10.4-1.9,13.1l-3,22.2c-0.4,2.9-0.9,5.9-1.3,8.8c0-0.1,0-0.2,0-0.2
		c-0.1,0.5-0.2,1-0.2,1.6c0,0,0,0,0,0c0,0.1,0,0.2,0,0.3c0,0.2,0,0.3-0.1,0.5c-0.4,2.5-0.8,5-1.2,7.6c-0.6,4.1-1.3,8.1-1.8,11.1
		c-0.1,0.7-0.2,1.3-0.3,2c-0.3,2-0.5,3.2-0.5,3.2c0,0,0-0.2,0-0.3c-11.5,69.5-25.6,129.9-31.6,129.9c-3,0-19-36.4-36-80
		c-27-74.7-45-100.4-45-64c0,17.8-52,288.9-57,294.2c-8,8.9-13-11.6-33-145.8c-12-78.2-25-161.8-29-186.7l-7-44.4l-7,57.8
		c-4,32-19,139.6-32,240c-14,100.4-26,195.6-27,212.4c-4,47.1-28,46.2-28-0.9c0-20.4-14-158.2-30-304.9c-17-146.7-30-280-30-296.9
		c0-16.9-2-28.4-4-26.7c-5,3.6-21,252.4-46,696.9c-12,213.3-20,288.9-30,288.9s-14-20.4-50-271.1c-32-223.1-45-308.4-86-586.7
		c-13-92.4-27-193.8-31-224.9c-10-94.2-11-88.9-53,269.3c-60,513.8-70,605.3-70,616c0,5.3-7,10.7-15,10.7c-10,0-15-8.9-15-24
		c0-14.2-14-164.4-30-336c-16-170.7-30-328.9-31-351.1c-3-75.6-16,90.7-24,297.8c-4,110.2-10,200-14,200c-4,0-20-47.1-35-104
		c-16-57.8-36-132.4-46-167.1l-18-62.2l-1,100.4c-1,54.2-5,99.6-9,99.6c-5,0-22-31.1-39-68.4l-30-68.4l-17,46.2
		c-10,25.8-16,51.6-13,57.8c3,6.2-3,11.6-12,12.4c-13,0.9-20-16.9-36-88.9l-19-90.7l-12,44.4c-7,24.9-12,56.9-12,71.1v26.7l8-26.7
		l9-26.7l-4,53.3l-38.6,1.1l17.6-96.2c10-57.8,22-104.9,26-104.9s18,47.1,32,104.9l24,104l19-48.9c25-68.4,27-70.2,47-30.2
		c10,18.7,16,26.7,13,16.9c-2-9.8,0-32,5-48.9c7-25.8,8-20.4,7,32.9c-1,35.6,2,66.7,6,70.2c6,6.2,13-149.3,8-198.2
		c-1-14.2,4-18.7,17-17.8c12,0,18,6.2,15,15.1c-2,7.1,14,78.2,35,158.2l38,144.9l12-251.6c7-138.7,12-278.2,12-311.1
		c0-45.3,3-60.4,14-60.4c9,0,15,17.8,19,60.4c4,32.9,11,112,18,175.1c6,64,19,197.3,29,297.8c2.4,24.2,5.9,50.4,9.2,73.2
		c0.7-9.8,2.2-18.5,3.6-18.5c4.1,0,6.4,78.9,6.8,90.1c2.5,84.4-1.7,146.3,4,146.7c1.1,0.1,2.1-2,2.4-2.7c4-8.9,114-943.1,114-968
		c0-8,4-14.2,8-14.2c5,0,14,39.1,20,87.1c6,47.1,28,196.4,48,330.7c19,134.2,52,361.8,73,504.9l37,259.6l17-299.6
		c10-165.3,22-384,28-487.1c11-201.8,15-244.4,28-244.4c11,0,14,24,47,328.9l6.6,59.5c0,0.1,0.1,0.7,0.2,1.5l0.8,7.4
		c0.2,2,0.5,4.2,0.7,6.5l0,0.2c0.2,2.2,0.5,4.5,0.8,6.8l0.3,2.6c0.8,7.1,1.6,14.5,2.3,20.6l0.7,6.6c0,0.3,0.1,0.5,0.1,0.7l9.3,83.9
		c12.2,109.1,12.9,107.7,13.3,125.3c0.2,10.4,0.2,26.7,2.1,26.8c1.3,0.1,3.6-11.9,7.9-37.5c4-26.7,20-140.4,34-253.3
		c28-209.8,32-232.9,41-224.9c4,4.4,38,210.7,51,316.4c3,25.8,9,48,13,50.7c6,3.6,50-204.4,50-238.2c0-38.2,25-4.4,55,72l31,81.8
		l28-158.2c15-86.2,29-168,32-181.3c9-40,24-28.4,24,17.8c0,23.1,7,99.6,14,170.7c8,71.1,25,237.3,37,368.9
		c10.8,118.8,18.2,307,35,375.1c9,36.4,7,34.7,44-629.3c11-199.1,20-379.6,20-402.7c0-30.2,4-40.9,15-40.9c9,0,15,8,15,18.7
		c0,17.8,20,228.4,60,620.4c11,104.9,21,191.1,23,192.9c1,1.8,11-56,20-128c17-123.6,80-567.1,92-648c11-69.3,22-40,33,93.3
		c23,253.3,32,344,38,375.1c6,29.3,17-21.3,69-326.2c3-21.3,10-38.2,14-38.2c4,0,13,58.7,19,131.6c18,200.9,42,440,46,459.6
		c2,9.8,4,0,5-22.2c1-22.2,10-115.6,21-208.9c11-92.4,20-177.8,20-188.4c0-11.6,4-20.4,8-20.4c9,0,42,161.8,42,204.4
		c1,49.8,18-9.8,39-133.3c12-71.1,24-137.8,26-148.4c9-34.7,25-22.2,25,17.8c0,20.4,7,77.3,15,125.3c8,48.9,16,100.4,16,115.6
		c1,19.6,6,9.8,18-33.8c11-38.2,20-57.8,25-50.7c5,6.2,20,72,36,145.8l27,135.1l7-111.1c4-61.3,11-180.4,15-264
		c7-140.4,12-173.3,26-160.9c7,5.3,35,197.3,35,235.6c0,16,4,29.3,9,29.3c8,0,21-83.6,21-138.7c0-32,15-40.9,24-14.2
		c2,8,10,51.6,17,95.1l12,80l20-99.6c11-55.1,24-100.4,28-100.4c5,0,9,2.7,9,7.1c0,3.6,13,50.7,29,104l29,97.8l13-41.8
		c7-24,16-42.7,20-42.7c4,0,17,39.1,29,87.1c12,47.1,23,91.6,25,97.8c1.8,3.7,9.2,6.7,20,8.6
		C2799,2218.7,2799.2,2219.4,2799.3,2220.1z"/>
	<path fill="#FE0095" d="M1023.5,2188.4c0.4,3.7,0.7,7.4,1.1,11.2C1024.3,2195.8,1023.9,2192.1,1023.5,2188.4L1023.5,2188.4z"/>
	<path fill="#FE0095" d="M1013.6,2087c-0.4-3.8-0.7-6.7-0.8-8.4l-0.2-1.7c9.1-13.4,12.2-16,13.2-15.5c2,1-5.7,14.5-11.5,33.2
		c0-0.1,0-0.2,0-0.3L1013.6,2087z"/>
</g>
<path fill="#FE0095" d="M105.3,89.9"/>
<path fill="#FE0095" d="M138.9,93.5"/>
<path fill="#800080" d="M158.6,218.8"/>
</svg>
